<?xml version="1.0" encoding="utf-8"?>
<!-- Generator: Adobe Illustrator 24.1.1, SVG Export Plug-In . SVG Version: 6.00 Build 0)  -->
<svg version="1.1" id="Layer_1" xmlns="http://www.w3.org/2000/svg" xmlns:xlink="http://www.w3.org/1999/xlink" x="0px" y="0px"
	 viewBox="0 0 189.33 225" style="enable-background:new 0 0 189.33 225;" xml:space="preserve">
<style type="text/css">
	.st0{fill:#EE1F33;}
	
		.st1{fill:none;stroke:#432010;stroke-width:4.209;stroke-linecap:round;stroke-linejoin:round;stroke-miterlimit:10;stroke-dasharray:103.1195,6.3134,0,6.3134,112.1192,0;}
	.st2{fill:#FFC40C;}
	.st3{fill:#E3AF24;}
	
		.st4{fill:none;stroke:#432010;stroke-width:4.209;stroke-linecap:round;stroke-linejoin:round;stroke-miterlimit:10;stroke-dasharray:62.0821,6.3134,0,6.3134,190.4553,0;}
	.st5{fill:#F8ED3E;}
	
		.st6{fill:none;stroke:#432010;stroke-width:4.209;stroke-linecap:round;stroke-linejoin:round;stroke-miterlimit:10;stroke-dasharray:286.2091,6.3134,0,6.3134,112.1192,0;}
	.st7{fill:#432010;}
	.st8{font-family:'FiraSans-Ultra';}
	.st9{font-size:40.2571px;}
	.st10{font-size:35.9019px;}
	.st11{fill:none;stroke:#FFFFFF;stroke-width:2.1045;stroke-linecap:round;stroke-miterlimit:10;}
	
		.st12{fill:none;stroke:#432010;stroke-width:4.209;stroke-linecap:round;stroke-linejoin:round;stroke-miterlimit:10;stroke-dasharray:19.9925,7.3657,0,7.3657,139.9478,0;}
	
		.st13{fill:none;stroke:#432010;stroke-width:4.209;stroke-linecap:round;stroke-linejoin:round;stroke-miterlimit:10;stroke-dasharray:287.2613,6.3134,0,16.8358,112.1192,0;}
	
		.st14{fill:none;stroke:#432010;stroke-width:4.209;stroke-linecap:round;stroke-linejoin:round;stroke-miterlimit:10;stroke-dasharray:117.8508,6.3134,0,6.3134,112.1192,0;}
</style>
<g>
	<path class="st0" d="M132.3,99.05H19.48c-5.37,0-9.77-4.4-9.77-9.77l0,0c0-5.37,4.4-9.77,9.77-9.77H132.3
		c5.37,0,9.77,4.4,9.77,9.77l0,0C142.07,94.65,137.68,99.05,132.3,99.05z"/>
	<path class="st1" d="M132.71,99.05H19.89c-5.37,0-9.77-4.4-9.77-9.77l0,0c0-5.37,4.4-9.77,9.77-9.77h112.82
		c5.37,0,9.77,4.4,9.77,9.77l0,0C142.48,94.65,138.08,99.05,132.71,99.05z"/>
	<path class="st2" d="M10.98,181.14c-0.82,2.39-1.27,4.94-1.27,7.6v2.55c0,12.9,10.55,23.45,23.45,23.45h86.28
		c12.9,0,23.45-10.55,23.45-23.45v-2.55c0-3.22-0.66-6.3-1.85-9.11L10.98,181.14z"/>
	<path class="st3" d="M140.97,179.63l-7.51,0.09c0.87,2.45,1.35,5.08,1.35,7.81v2.55c0,12.9-10.55,23.45-23.45,23.45H25.71
		c2.32,0.78,4.8,1.2,7.38,1.2h86.28c12.9,0,23.45-10.55,23.45-23.45v-2.55C142.82,185.52,142.16,182.44,140.97,179.63z"/>
	<path class="st4" d="M11.25,181.14c-0.82,2.39-1.27,4.94-1.27,7.6v2.55c0,12.9,10.55,23.45,23.45,23.45h86.28
		c12.9,0,23.45-10.55,23.45-23.45v-2.55c0-3.22-0.66-6.3-1.85-9.11L11.25,181.14z"/>
	<path class="st5" d="M127,170.58H24.02c-8.31,0-15.1,3.99-15.1,8.88l0,0c0,4.88,6.8,8.88,15.1,8.88h22.86c0.01,0,0.03,0,0.04,0
		c1.79,0.01,3.41,1.06,4.3,2.61l8.94,15.61c0.87,1.53,2.46,2.57,4.22,2.6c0.05,0,0.11,0,0.16,0c1.72-0.01,3.3-0.95,4.23-2.41
		l10.19-16.01c0.91-1.43,2.46-2.37,4.15-2.4c0.04,0,0.08,0,0.12,0H127c8.31,0,15.1-3.99,15.1-8.88l0,0
		C142.1,174.58,135.3,170.58,127,170.58z"/>
	<path class="st6" d="M126.97,170.58H23.99c-8.31,0-15.1,3.99-15.1,8.88l0,0c0,4.88,6.8,8.88,15.1,8.88h22.86c0.01,0,0.03,0,0.04,0
		c1.79,0.01,3.41,1.06,4.3,2.61l8.94,15.61c0.87,1.53,2.46,2.57,4.22,2.6c0.05,0,0.11,0,0.16,0c1.72-0.01,3.3-0.95,4.23-2.41
		l10.19-16.01c0.91-1.43,2.46-2.37,4.15-2.4c0.04,0,0.08,0,0.12,0h43.78c8.31,0,15.1-3.99,15.1-8.88l0,0
		C142.07,174.58,135.28,170.58,126.97,170.58z"/>
	<g>
		<text transform="matrix(1 0 0 1 13.9775 135.2331)" class="st7 st8 st9">HCODE</text>
	</g>
	<g>
		<text transform="matrix(1 0 0 1 11.1348 165.4893)" class="st0 st8 st10">BURGER</text>
	</g>
	<line class="st11" x1="74.43" y1="186.39" x2="64.96" y2="202.17"/>
	<line class="st12" x1="44.97" y1="195.59" x2="16.62" y2="195.59"/>
	<path class="st2" d="M142.1,77.95c0,17.85-133.18,17.85-133.18,0c0-17.85,29.81-32.33,66.59-32.33
		C112.29,45.62,142.1,60.09,142.1,77.95z"/>
	<path class="st3" d="M75.51,45.69c-24.02,0-45.07,6.18-56.78,15.44C30.9,54.66,48.42,50.6,67.89,50.6
		c36.78,0,66.59,14.47,66.59,32.33c0,0.68-0.21,1.32-0.58,1.95c5.15-1.88,8.2-4.17,8.2-6.86C142.1,60.17,112.29,45.69,75.51,45.69z"
		/>
	<path class="st13" d="M142.07,77.71c0,17.85-133.18,17.85-133.18,0c0-17.85,29.81-32.33,66.59-32.33
		C112.26,45.38,142.07,59.85,142.07,77.71z"/>
	<path class="st14" d="M174.25,11.92h-37.88c-1.21,0-2.19,0.98-2.19,2.19v20.72c0,0.17-0.02,0.33-0.06,0.49l-1.76,7.61l-1.33,5.72
		c-0.38,1.64,1.16,3.08,2.77,2.59l5.62-1.71l6.21-1.89c0.21-0.06,0.42-0.1,0.64-0.1h27.97c1.21,0,2.19-0.98,2.19-2.19V14.11
		C176.44,12.9,175.46,11.92,174.25,11.92z"/>
	<path class="st0" d="M168.82,26.11c0-3.65-2.96-6.61-6.61-6.61c-3.28,0-5.99,2.4-6.5,5.53c-0.52-3.14-3.22-5.53-6.5-5.53
		c-3.65,0-6.61,2.96-6.61,6.61c0,0-0.54,8.32,13.12,14.45C169.36,34.43,168.82,26.11,168.82,26.11z"/>
	<g>
		<path class="st7" d="M34.15,79.39c-0.15,1.11-0.97,1.92-1.82,1.8c-0.85-0.12-1.42-1.11-1.26-2.22c0.07-0.52,0.53-1.39,1-2.17
			c0.42-0.7,1.48-0.55,1.7,0.23C34.02,77.91,34.23,78.87,34.15,79.39z"/>
		<path class="st7" d="M49.04,64.69c-0.15,1.11-0.97,1.92-1.82,1.8c-0.85-0.12-1.42-1.11-1.26-2.22c0.07-0.52,0.53-1.39,1-2.17
			c0.42-0.7,1.48-0.55,1.69,0.23C48.9,63.21,49.11,64.17,49.04,64.69z"/>
		<path class="st7" d="M56.57,79.39c-0.15,1.11-0.97,1.92-1.82,1.8c-0.85-0.12-1.42-1.11-1.26-2.22c0.07-0.52,0.53-1.39,1-2.17
			c0.42-0.7,1.48-0.55,1.69,0.23C56.43,77.91,56.64,78.87,56.57,79.39z"/>
		<path class="st7" d="M60.57,54.51c-0.15,1.11-0.97,1.92-1.82,1.8c-0.85-0.12-1.42-1.11-1.26-2.22c0.07-0.52,0.53-1.39,1-2.17
			c0.42-0.7,1.48-0.55,1.69,0.23C60.43,53.03,60.64,53.99,60.57,54.51z"/>
		<path class="st7" d="M79.68,54.05c-0.15,1.11-0.97,1.92-1.82,1.8c-0.85-0.12-1.42-1.11-1.26-2.22c0.07-0.52,0.53-1.39,1-2.17
			c0.42-0.7,1.48-0.55,1.69,0.23C79.54,52.57,79.75,53.53,79.68,54.05z"/>
		<path class="st7" d="M99.97,56.93c-0.15,1.11-0.97,1.92-1.82,1.8c-0.85-0.12-1.42-1.11-1.26-2.22c0.07-0.52,0.53-1.39,1-2.17
			c0.42-0.7,1.48-0.55,1.69,0.23C99.84,55.45,100.05,56.41,99.97,56.93z"/>
		<path class="st7" d="M120.07,78.34c-0.15,1.11-0.97,1.92-1.82,1.8c-0.85-0.12-1.42-1.11-1.26-2.22c0.07-0.52,0.53-1.39,1-2.17
			c0.42-0.7,1.48-0.55,1.69,0.23C119.93,76.86,120.14,77.82,120.07,78.34z"/>
		<path class="st7" d="M110.79,68.85c-0.15,1.11-0.97,1.92-1.82,1.8c-0.85-0.12-1.42-1.11-1.26-2.22c0.07-0.52,0.53-1.39,1-2.17
			c0.42-0.7,1.48-0.55,1.7,0.23C110.65,67.37,110.86,68.33,110.79,68.85z"/>
		<path class="st7" d="M69.18,66.22c-0.15,1.11-0.97,1.92-1.82,1.8c-0.85-0.12-1.42-1.11-1.26-2.22c0.07-0.52,0.53-1.39,1-2.17
			c0.42-0.7,1.48-0.55,1.69,0.23C69.04,64.74,69.25,65.7,69.18,66.22z"/>
		<path class="st7" d="M88.38,67.01c-0.15,1.11-0.97,1.92-1.82,1.8c-0.85-0.12-1.42-1.11-1.26-2.22c0.07-0.52,0.53-1.39,1-2.17
			c0.42-0.7,1.48-0.55,1.69,0.23C88.24,65.53,88.45,66.49,88.38,67.01z"/>
		<path class="st7" d="M77.22,77.82c-0.15,1.11-0.97,1.92-1.82,1.8c-0.85-0.12-1.42-1.11-1.26-2.22c0.07-0.52,0.53-1.39,1-2.17
			c0.42-0.7,1.48-0.55,1.69,0.23C77.08,76.34,77.29,77.3,77.22,77.82z"/>
		<path class="st7" d="M98.2,77.62c-0.15,1.11-0.97,1.92-1.82,1.8c-0.85-0.12-1.42-1.11-1.26-2.22c0.07-0.52,0.53-1.39,1-2.17
			c0.42-0.7,1.48-0.55,1.69,0.23C98.07,76.14,98.28,77.1,98.2,77.62z"/>
	</g>
</g>
</svg>
